Coordinates
version=1
nRows=7
nColumns=40
inDegrees=yes

Units are S.I. units (second, meters, Newtons, ...)
Angles are in degrees.

endheader
time	pelvis_tilt	pelvis_list	pelvis_rotation	pelvis_tx	pelvis_ty	pelvis_tz	hip_flexion_r	hip_adduction_r	hip_rotation_r	knee_angle_r	knee_angle_r_beta	ankle_angle_r	subtalar_angle_r	mtp_angle_r	hip_flexion_l	hip_adduction_l	hip_rotation_l	knee_angle_l	knee_angle_l_beta	ankle_angle_l	subtalar_angle_l	mtp_angle_l	lumbar_extension	lumbar_bending	lumbar_rotation	arm_flex_r	arm_add_r	arm_rot_r	elbow_flex_r	pro_sup_r	wrist_flex_r	wrist_dev_r	arm_flex_l	arm_add_l	arm_rot_l	elbow_flex_l	pro_sup_l	wrist_flex_l	wrist_dev_l
     27.40500000	     -2.06803413	     -6.46593284	      4.22415813	      1.10263320	      0.93319210	      0.49984609	      4.55072049	      6.61120673	    -18.47676577	      9.46801831	      9.46801831	      9.94428798	      5.32883900	     -7.63976183	     34.70962778	    -14.52227180	     -2.32571146	     46.71070224	     46.71070224	     10.72213680	    -18.57422615	     16.09003203	    -10.24830768	      8.02447028	      5.20611530	     28.96500941	    -15.59487262	    -11.01848966	     38.77487723	     46.23603703	      0.00000000	      0.00000000	      3.86465950	     -6.55419303	     -0.54120497	     24.80002943	     46.57627571	      0.00000000	      0.00000000
     27.41657143	     -2.15386832	     -6.59069326	      4.34069307	      1.10154403	      0.93249592	      0.50000277	      3.80775541	      6.90979345	    -18.40963860	      8.92446221	      8.92446221	     10.18715886	      5.44069983	     -7.67445763	     35.32469450	    -14.20289129	     -2.07270734	     43.09214238	     43.09214238	     10.08522872	    -18.30894231	     16.21165991	    -10.28402832	      8.04056306	      5.00070970	     31.08665764	    -15.59497820	    -10.48271653	     40.98033941	     46.12944213	      0.00000000	      0.00000000	      2.08152110	     -6.65717831	     -0.59413262	     23.35800762	     46.55113270	      0.00000000	      0.00000000
     27.42814286	     -2.25509892	     -6.73849686	      4.46110773	      1.10056658	      0.93165508	      0.49998012	      3.05389137	      7.21543097	    -18.45497089	      8.34963708	      8.34963708	     10.45075608	      5.66549286	     -7.72891715	     35.82703160	    -13.86799234	     -1.80654459	     39.37194558	     39.37194558	      9.24905171	    -17.77789626	     15.72856693	    -10.25406004	      8.12688686	      4.80184889	     32.98285591	    -15.69578919	     -9.58800735	     43.84563578	     45.97857285	      0.00000000	      0.00000000	      0.35930790	     -6.67856960	     -0.69250294	     21.99802399	     46.53566607	      0.00000000	      0.00000000
     27.43971429	     -2.49666478	     -6.77829785	      4.51118877	      1.09957608	      0.93066048	      0.49995015	      2.53536045	      7.35958888	    -18.37122413	      7.96168663	      7.96168663	     10.76471378	      5.84233006	     -7.78876372	     36.27685508	    -13.42824243	     -1.66194668	     35.56805638	     35.56805638	      8.73796074	    -16.69377139	     15.75218664	    -10.12131358	      7.99823459	      5.04022810	     34.72619675	    -15.98306561	     -9.27547941	     45.65983128	     45.90334605	      0.00000000	      0.00000000	     -1.29786716	     -6.79419963	     -0.76037299	     21.19584654	     46.51543647	      0.00000000	      0.00000000
     27.45128571	     -2.59173132	     -6.90933419	      4.62375763	      1.09883956	      0.92972486	      0.49970224	      1.74715547	      7.62925482	    -18.45007848	      7.38039150	      7.38039150	     11.06325797	      6.26248243	     -7.76564518	     36.50469933	    -13.06700480	     -1.44002223	     31.85293017	     31.85293017	      8.12872559	    -15.21898376	     15.02302584	    -10.18102236	      8.05419878	      4.66664428	     36.42822131	    -15.86673164	     -8.58943179	     48.81138167	     45.76025950	      0.00000000	      0.00000000	     -3.21706443	     -6.90691336	     -0.84354834	     20.36952900	     46.49121055	      0.00000000	      0.00000000
     27.46285714	     -2.75230097	     -7.10393175	      4.69581651	      1.09829613	      0.92854670	      0.49939972	      1.06713701	      7.92438500	    -18.63863243	      6.91552584	      6.91552584	     11.51755183	      6.90992367	     -7.50945701	     36.65853336	    -12.83106327	     -1.41615635	     28.13928531	     28.13928531	      6.75101211	    -13.40065289	     12.02143673	    -10.14479210	      8.18271059	      5.21396547	     36.68306779	    -17.14100383	     -6.78916504	     54.53900258	     45.47203497	      0.00000000	      0.00000000	     -4.96285981	     -7.00095869	     -1.07259080	     20.54095004	     46.47752618	      0.00000000	      0.00000000
     27.47442857	     -2.97080081	     -7.14850797	      4.75746524	      1.09781571	      0.92736564	      0.49893780	      0.50061039	      8.04199991	    -18.57680886	      6.56992918	      6.56992918	     11.88013138	      7.07058357	     -7.53095257	     36.84505766	    -12.43458771	     -1.43798016	     24.86234951	     24.86234951	      6.63597334	    -11.16597424	     12.23460646	     -9.93372108	      8.10105914	      5.08662456	     38.47452579	    -17.02424594	     -6.84034619	     56.22044872	     45.42436763	      0.00000000	      0.00000000	     -6.65369493	     -7.06707071	     -1.06145529	     19.87727452	     46.43688751	      0.00000000	      0.00000000
